PathFileType	4	(X/Y/Z)	C:\Users\dbl\Desktop\LZH\BX\Trimmed_bx_n_10_1801.trc
DataRate	CameraRate	NumFrames	NumMarkers	Units	OrigDataRate	OrigDataStartFrame	OrigNumFrames
50.00	50.00	       5	43	mm	50.00	296	       394
Frame#	Time	Top.Head			R.Acromium			L.Acromium			Sternum			R.ASIS			L.ASIS			V.Sacral			R.Thigh.Upper			R.Thigh.Front			R.Thigh.Rear			R.Knee.Lat			R.Knee.Med			R.Shank.Upper			R.Shank.Front			R.Shank.Rear			R.Ankle.Lat			R.Midfoot.Lat			R.Toe.Lat			R.Toe.Tip			R.Toe.Med			R.Ankle.Med			R.Midfoot.Sup			R.Heel			L.Thigh.Upper			L.Thigh.Front			L.Thigh.Rear			L.Knee.Lat			L.Knee.Med			L.Shank.Upper			L.Shank.Front			L.Shank.Rear			L.Ankle.Lat			L.Midfoot.Lat			L.Toe.Lat			L.Toe.Tip			L.Toe.Med			L.Ankle.Med			L.Midfoot.Sup			L.Heel			origin1 front left			origin2 front right			origin 3 back right			origin 4 back leftt			
		X1	Y1	Z1	X2	Y2	Z2	X3	Y3	Z3	X4	Y4	Z4	X5	Y5	Z5	X6	Y6	Z6	X7	Y7	Z7	X8	Y8	Z8	X9	Y9	Z9	X10	Y10	Z10	X11	Y11	Z11	X12	Y12	Z12	X13	Y13	Z13	X14	Y14	Z14	X15	Y15	Z15	X16	Y16	Z16	X17	Y17	Z17	X18	Y18	Z18	X19	Y19	Z19	X20	Y20	Z20	X21	Y21	Z21	X22	Y22	Z22	X23	Y23	Z23	X24	Y24	Z24	X25	Y25	Z25	X26	Y26	Z26	X27	Y27	Z27	X28	Y28	Z28	X29	Y29	Z29	X30	Y30	Z30	X31	Y31	Z31	X32	Y32	Z32	X33	Y33	Z33	X34	Y34	Z34	X35	Y35	Z35	X36	Y36	Z36	X37	Y37	Z37	X38	Y38	Z38	X39	Y39	Z39	X40	Y40	Z40	X41	Y41	Z41	X42	Y42	Z42	X43	Y43	Z43	

296	5.900	-243.69153	280.00305	1213.24170	-368.21570	102.50900	969.55743	-371.70999	433.53915	948.97766	-555.28845	250.97160	829.47504	-746.74939	147.53481	735.48474	-741.84985	364.87949	691.93225	-943.60083	280.47214	757.94312	-734.26044	69.86070	673.84601	-678.28308	146.44084	720.73993	-619.82452	59.34064	622.04858	-514.36078	74.61674	534.38818	-475.85367	180.73846	521.51270	-529.33960	75.71338	487.89749	-444.23572	118.75121	491.70090	-592.50189	87.46929	449.02600	-676.96466	148.32753	215.94209	-613.63531	88.85573	168.34880	-565.87439	71.71036	167.30109	-487.14523	112.84483	156.94339	-536.36798	161.28439	163.11058	-629.77948	221.22466	210.26303	-599.21368	199.48271	165.83707	-724.15997	216.82384	176.78615	-725.21143	464.23184	655.13544	-652.37482	382.60550	712.99847	-620.22681	462.24084	601.21143	-503.65259	443.12372	539.01880	-436.79941	336.74472	529.10632	-482.34421	443.96594	501.12515	-421.61694	393.65466	494.85864	-548.42743	437.43890	468.85843	-667.79370	402.54242	212.38101	-588.00616	456.30502	166.45320	-550.50952	463.73547	162.01450	-487.82172	417.50446	163.23167	-526.21869	375.46747	174.37611	-634.51251	313.78009	198.59258	-595.37024	335.80612	163.56625	-734.38049	331.18546	166.66978	-443.80463	447.89883	146.34048	-450.72418	75.74492	143.41365	-806.28418	82.57880	142.47774	-799.26642	457.52869	145.78879	
297	5.920	-245.10455	280.29221	1211.33862	-368.36276	102.78358	966.98553	-372.02560	433.42673	946.19873	-556.04413	251.45155	825.81769	-746.97424	148.03680	733.30212	-742.72363	365.33020	689.45142	-943.73767	281.23279	755.13354	-734.26709	70.43347	672.09076	-678.57562	147.03851	719.22809	-619.55603	59.66895	621.09967	-513.66278	74.82896	534.09637	-475.23370	181.76886	521.70947	-528.58795	75.92950	487.50314	-443.54935	119.16096	491.62097	-591.87024	87.58610	448.77637	-676.81018	148.52554	216.05220	-613.53253	89.00675	168.46001	-565.78790	71.80016	167.40265	-487.15372	112.88387	156.80617	-536.28864	161.36690	163.00838	-629.68555	221.27731	210.29047	-599.07520	199.64766	165.69467	-724.06915	217.01784	176.84570	-724.82550	464.65582	653.25916	-652.36243	382.92532	711.41302	-619.57239	462.46130	599.78198	-502.75693	443.48090	538.40491	-436.14569	336.68243	528.61237	-481.41675	444.17365	500.73453	-420.78357	393.43143	494.54471	-547.65338	437.62613	468.59604	-667.73108	402.47891	212.36586	-587.93579	456.21405	166.51173	-550.52631	463.68488	162.06438	-487.75223	417.46039	163.12291	-526.19952	375.39182	174.36624	-634.43042	313.74167	198.59253	-595.32678	335.65903	163.51520	-734.32074	330.97885	166.85812	-443.81570	447.88861	146.36198	-450.74802	75.74535	143.38228	-806.28925	82.59016	142.47501	-799.27228	457.58771	145.76791	
298	5.940	-246.48819	280.45612	1209.58545	-368.64890	103.06367	964.69995	-372.63278	433.25381	943.71472	-556.77972	251.93175	822.44159	-747.24677	148.56180	731.12988	-743.55798	365.75836	687.19983	-943.94458	281.99741	752.33270	-734.35645	71.00161	670.35205	-678.91602	147.68054	717.66528	-619.37250	60.12930	620.10181	-512.99268	75.09908	533.80859	-474.73181	182.75128	521.90436	-527.91876	76.18767	487.21274	-442.86493	119.60062	491.58737	-591.30334	87.77496	448.53897	-676.61914	148.72412	216.15073	-613.33405	89.23807	168.65825	-565.72327	71.90768	167.50264	-487.15112	112.89469	156.67067	-536.21521	161.47179	162.89848	-629.67322	221.43996	210.40732	-598.91968	199.84828	165.55078	-723.95367	217.26564	176.91325	-724.40137	465.05347	651.46838	-652.31140	383.23129	709.89252	-618.92493	462.62979	598.41467	-501.81042	443.82358	537.87360	-435.45300	336.59543	528.10022	-480.53723	444.31100	500.32822	-419.94183	393.08966	494.32388	-546.92847	437.74420	468.22668	-667.66254	402.43338	212.38339	-587.88446	456.12918	166.55855	-550.53467	463.61887	162.10121	-487.69647	417.46207	163.09460	-526.16150	375.28885	174.36354	-634.30408	313.65027	198.62813	-595.24628	335.52316	163.43549	-734.27673	330.81082	166.94652	-443.80670	447.89227	146.35341	-450.77289	75.73610	143.36853	-806.28723	82.58089	142.46877	-799.26709	457.61343	145.74863	
299	5.960	-247.86603	280.53387	1208.00439	-369.05975	103.34662	962.65833	-373.28894	433.13522	941.68994	-557.49451	252.41144	819.34607	-747.60443	149.09790	729.00842	-744.35187	366.16415	685.17590	-944.25433	282.73267	749.61096	-734.54272	71.51459	668.70813	-679.34729	148.32675	716.12524	-619.27209	60.72458	619.09985	-512.37402	75.42770	533.52820	-474.36438	183.61665	521.98816	-527.36243	76.47291	487.03735	-442.21918	120.10527	491.54135	-590.81653	88.11237	448.33014	-676.41815	148.89255	216.24472	-613.08978	89.51501	168.88972	-565.65710	72.03427	167.60384	-487.12598	112.88380	156.55287	-536.15082	161.58949	162.80949	-629.71924	221.68431	210.58984	-598.80017	200.05820	165.45119	-723.84253	217.50569	176.95940	-724.02301	465.43338	649.78381	-652.29028	383.47018	708.45837	-618.33038	462.79190	597.16241	-500.88803	444.07846	537.39319	-434.78055	336.54614	527.62042	-479.73526	444.37146	499.87482	-419.19470	392.76602	494.12073	-546.26703	437.83411	467.79794	-667.58051	402.40991	212.43408	-587.86066	456.06348	166.59361	-550.52570	463.55200	162.12311	-487.64465	417.44937	163.07629	-526.11731	375.18466	174.34656	-634.16315	313.51257	198.69217	-595.15308	335.41351	163.34602	-734.25562	330.68790	166.99016	-443.78259	447.90588	146.32828	-450.78467	75.72601	143.37321	-806.27203	82.55888	142.47150	-799.26599	457.58844	145.73940	
300	5.980	-249.28506	280.55292	1206.57813	-369.59485	103.61169	960.80322	-373.86829	433.11951	940.14819	-558.18787	252.88986	816.53058	-748.07538	149.62605	726.98645	-745.10413	366.54773	683.37769	-944.66577	283.43808	747.01129	-734.80359	71.98499	667.17517	-679.89185	148.97844	714.63965	-619.22400	61.37465	618.20544	-511.84534	75.79797	533.26990	-474.12598	184.33902	521.90759	-526.90808	76.77114	486.93536	-441.65735	120.70041	491.50299	-590.40631	88.55345	448.15863	-676.25085	149.01135	216.34911	-612.89923	89.76947	169.06967	-565.57306	72.18262	167.68767	-487.07706	112.87772	156.45178	-536.10010	161.70583	162.75734	-629.80444	221.98482	210.81619	-598.74310	200.22169	165.39693	-723.77161	217.67316	176.97638	-723.75159	465.79639	648.17578	-652.39185	383.63599	707.10950	-617.83673	462.98819	596.03729	-500.06805	444.22342	536.93701	-434.22437	336.53958	527.25354	-479.01471	444.36835	499.39694	-418.74017	392.69931	493.70599	-545.68036	437.92078	467.40314	-667.49841	402.39847	212.49432	-587.85492	456.02057	166.62801	-550.50690	463.50983	162.14233	-487.57434	417.40778	163.03362	-526.08112	375.11191	174.32272	-634.04547	313.36337	198.75626	-595.08087	335.33710	163.26865	-734.24487	330.60950	167.03781	-443.75449	447.91217	146.29965	-450.78854	75.72086	143.37830	-806.25671	82.54140	142.48297	-799.26953	457.50165	145.75227	
